<svg width="232" height="25" viewBox="0 0 232 25" fill="none" xmlns="http://www.w3.org/2000/svg">
<g clip-path="url(#clip0_17525_4112)">
<path d="M16.4669 18.3054H13.3887L15.314 6.40039H18.3921L16.4669 18.3054Z" fill="#00579F"/>
<path d="M27.6246 6.69044C27.0174 6.44956 26.0544 6.18359 24.8636 6.18359C21.8237 6.18359 19.6831 7.80462 19.6699 10.1222C19.6447 11.8321 21.2026 12.7818 22.3678 13.352C23.5587 13.9346 23.9636 14.3148 23.9636 14.8341C23.9514 15.6317 23.0012 15.9993 22.1149 15.9993C20.886 15.9993 20.2275 15.8098 19.2267 15.366L18.8214 15.1758L18.3906 17.8482C19.1126 18.1772 20.4427 18.4691 21.8237 18.4818C25.0537 18.4818 27.1565 16.8859 27.1814 14.4162C27.1937 13.0609 26.371 12.0225 24.5975 11.1739C23.5208 10.6292 22.8615 10.2619 22.8615 9.70457C22.8741 9.19789 23.4192 8.67893 24.6345 8.67893C25.6352 8.65351 26.3705 8.89406 26.9275 9.13477L27.2059 9.26119L27.6246 6.69044Z" fill="#00579F"/>
<path d="M31.7177 14.0879C31.9712 13.404 32.9466 10.757 32.9466 10.757C32.9339 10.7824 33.1996 10.0604 33.3517 9.61719L33.5668 10.643C33.5668 10.643 34.1497 13.4927 34.2763 14.0879C33.7952 14.0879 32.3257 14.0879 31.7177 14.0879ZM35.5174 6.40039H33.1364C32.4021 6.40039 31.8442 6.61552 31.5274 7.38816L26.9551 18.3053H30.185C30.185 18.3053 30.7168 16.8359 30.8311 16.5194C31.1854 16.5194 34.3275 16.5194 34.7833 16.5194C34.8717 16.9374 35.1506 18.3053 35.1506 18.3053H38.0008L35.5174 6.40039Z" fill="#00579F"/>
<path d="M10.8168 6.40039L7.80213 14.5185L7.47271 12.872C6.91536 10.9723 5.16741 8.90818 3.2168 7.88187L5.9781 18.2928H9.23328L14.0718 6.40039H10.8168Z" fill="#00579F"/>
<path d="M5.0033 6.40039H0.0506674L0 6.64094C3.86336 7.62887 6.42199 10.0102 7.47322 12.8725L6.39657 7.40112C6.21932 6.64077 5.6746 6.42547 5.0033 6.40039Z" fill="#FAA61A"/>
</g>
<g clip-path="url(#clip1_17525_4112)">
<path d="M77.9984 3.28613H67.9629V21.3158H77.9984V3.28613Z" fill="#FF5A00"/>
<path d="M68.6304 12.301C68.6304 8.63796 70.3525 5.38682 72.995 3.2862C71.0502 1.75713 68.597 0.833008 65.9212 0.833008C59.5822 0.833008 54.4531 5.96208 54.4531 12.301C54.4531 18.64 59.5822 23.7691 65.9212 23.7691C68.597 23.7691 71.0502 22.845 72.995 21.3159C70.3488 19.245 68.6304 15.9641 68.6304 12.301Z" fill="#EB001B"/>
<path d="M91.536 12.301C91.536 18.64 86.4069 23.7691 80.068 23.7691C77.3921 23.7691 74.9389 22.845 72.9941 21.3159C75.67 19.2116 77.3587 15.9641 77.3587 12.301C77.3587 8.63796 75.6366 5.38682 72.9941 3.2862C74.9352 1.75713 77.3884 0.833008 80.0642 0.833008C86.4069 0.833008 91.536 5.99548 91.536 12.301Z" fill="#F79E1B"/>
</g>
<g clip-path="url(#clip2_17525_4112)">
<path d="M108 0.333008H132V13.2889L130.812 15.1451L132 16.797V24.333H108V12.1195L108.742 11.2657L108 10.449V0.333008Z" fill="#016FD0"/>
<path d="M112.658 17.057V13.2891H116.648L117.076 13.8471L117.518 13.2891H131.999V16.7972C131.999 16.7972 131.621 17.0533 131.183 17.057H123.164L122.681 16.4631V17.057H121.1V16.0431C121.1 16.0431 120.884 16.1847 120.417 16.1847H119.879V17.057H117.484L117.057 16.4871L116.623 17.057H112.658Z" fill="white"/>
<path d="M108 10.449L108.9 8.35156H110.456L110.966 9.52647V8.35156H112.9L113.204 9.20075L113.499 8.35156H122.181V8.77848C122.181 8.77848 122.637 8.35156 123.387 8.35156L126.205 8.36141L126.706 9.52093V8.35156H128.325L128.77 9.01762V8.35156H130.404V12.1195H128.77L128.343 11.4513V12.1195H125.965L125.726 11.5256H125.087L124.852 12.1195H123.239C122.594 12.1195 122.181 11.7013 122.181 11.7013V12.1195H119.749L119.267 11.5256V12.1195H110.225L109.986 11.5256H109.349L109.112 12.1195H108V10.449Z" fill="white"/>
<path d="M109.217 8.81543L108.004 11.6368H108.794L109.018 11.0718H110.319L110.542 11.6368H111.35L110.137 8.81543H109.217ZM109.666 9.47204L110.063 10.4593H109.268L109.666 9.47204Z" fill="#016FD0"/>
<path d="M111.434 11.6368V8.81543L112.556 8.8196L113.209 10.6386L113.847 8.81543H114.96V11.6368H114.255V9.55789L113.507 11.6368H112.889L112.139 9.55789V11.6368H111.434Z" fill="#016FD0"/>
<path d="M115.443 11.6368V8.81543H117.745V9.44652H116.156V9.92912H117.708V10.5231H116.156V11.0242H117.745V11.6368H115.443Z" fill="#016FD0"/>
<path d="M118.152 8.81543V11.6368H118.858V10.6345H119.155L120 11.6368H120.862L119.934 10.5973C120.315 10.5652 120.708 10.2383 120.708 9.73075C120.708 9.13704 120.242 8.81543 119.722 8.81543H118.152ZM118.858 9.44652H119.664C119.857 9.44652 119.998 9.59781 119.998 9.7435C119.998 9.93094 119.816 10.0405 119.674 10.0405H118.858V9.44652Z" fill="#016FD0"/>
<path d="M121.716 11.6368H120.996V8.81543H121.716V11.6368Z" fill="#016FD0"/>
<path d="M123.425 11.6368H123.269C122.517 11.6368 122.061 11.0442 122.061 10.2377C122.061 9.41128 122.512 8.81543 123.462 8.81543H124.242V9.48364H123.433C123.048 9.48364 122.775 9.78455 122.775 10.2447C122.775 10.7911 123.087 11.0205 123.536 11.0205H123.722L123.425 11.6368Z" fill="#016FD0"/>
<path d="M124.96 8.81543L123.746 11.6368H124.536L124.76 11.0718H126.062L126.284 11.6368H127.092L125.88 8.81543H124.96ZM125.409 9.47204L125.805 10.4593H125.011L125.409 9.47204Z" fill="#016FD0"/>
<path d="M127.174 11.6368V8.81543H128.071L129.216 10.5881V8.81543H129.921V11.6368H129.053L127.879 9.81775V11.6368H127.174Z" fill="#016FD0"/>
<path d="M113.141 16.5743V13.7529H115.442V14.384H113.853V14.8666H115.405V15.4606H113.853V15.9617H115.442V16.5743H113.141Z" fill="#016FD0"/>
<path d="M124.42 16.5743V13.7529H126.722V14.384H125.133V14.8666H126.677V15.4606H125.133V15.9617H126.722V16.5743H124.42Z" fill="#016FD0"/>
<path d="M115.533 16.5743L116.653 15.181L115.506 13.7529H116.394L117.078 14.6358L117.763 13.7529H118.617L117.485 15.1636L118.608 16.5743H117.719L117.056 15.7054L116.408 16.5743H115.533Z" fill="#016FD0"/>
<path d="M118.691 13.7529V16.5743H119.415V15.6833H120.158C120.786 15.6833 121.262 15.35 121.262 14.7019C121.262 14.165 120.889 13.7529 120.249 13.7529H118.691ZM119.415 14.391H120.197C120.4 14.391 120.545 14.5154 120.545 14.7158C120.545 14.9041 120.401 15.0406 120.195 15.0406H119.415V14.391Z" fill="#016FD0"/>
<path d="M121.568 13.7529V16.5743H122.274V15.572H122.571L123.416 16.5743H124.278L123.35 15.5348C123.731 15.5027 124.124 15.1758 124.124 14.6682C124.124 14.0745 123.658 13.7529 123.138 13.7529H121.568ZM122.274 14.384H123.08C123.273 14.384 123.414 14.5353 123.414 14.681C123.414 14.8684 123.232 14.978 123.09 14.978H122.274V14.384Z" fill="#016FD0"/>
<path d="M127.049 16.5743V15.9617H128.46C128.669 15.9617 128.759 15.8489 128.759 15.7251C128.759 15.6065 128.669 15.4866 128.46 15.4866H127.822C127.268 15.4866 126.959 15.1488 126.959 14.6416C126.959 14.1892 127.242 13.7529 128.066 13.7529H129.439L129.142 14.3877H127.954C127.727 14.3877 127.657 14.5069 127.657 14.6207C127.657 14.7376 127.744 14.8666 127.917 14.8666H128.585C129.204 14.8666 129.472 15.2172 129.472 15.6764C129.472 16.17 129.173 16.5743 128.552 16.5743H127.049Z" fill="#016FD0"/>
<path d="M129.636 16.5743V15.9617H131.048C131.257 15.9617 131.347 15.8489 131.347 15.7251C131.347 15.6065 131.257 15.4866 131.048 15.4866H130.41C129.856 15.4866 129.547 15.1488 129.547 14.6416C129.547 14.1892 129.83 13.7529 130.654 13.7529H132.027L131.73 14.3877H130.542C130.315 14.3877 130.245 14.5069 130.245 14.6207C130.245 14.7376 130.332 14.8666 130.505 14.8666H131.173C131.791 14.8666 132.06 15.2172 132.06 15.6764C132.06 16.17 131.761 16.5743 131.14 16.5743H129.636Z" fill="#016FD0"/>
</g>
<g clip-path="url(#clip3_17525_4112)">
<path d="M151.696 1.10449C149.798 1.10449 148.064 2.81607 148.064 4.7357C148.064 5.79232 148.063 9.97422 148.063 14.1312C148.41 14.3498 150.083 14.8866 150.756 14.9341C152.229 15.0383 153.143 14.5511 153.284 13.3232L153.277 8.76271H156.536V13.2191C156.365 15.7715 154.126 16.2914 150.717 16.1196C149.835 16.075 148.635 15.8476 148.062 15.6983C148.061 19.8588 148.061 23.5845 148.061 23.5845C148.061 23.5845 152.316 23.5845 153.733 23.5845C155.281 23.5845 157.295 22.1381 157.295 19.9387C157.295 16.2478 157.295 1.10449 157.295 1.10449C157.295 1.10449 153.143 1.10449 151.696 1.10449Z" fill="url(#paint0_linear_17525_4112)"/>
<path d="M162.102 1.10449C160.204 1.10449 158.47 2.81607 158.47 4.7357C158.47 5.40513 158.47 7.32909 158.47 9.70623C159.608 8.81692 161.443 8.38085 163.779 8.56076C165.107 8.66302 166.09 8.84844 166.626 9.0072V10.5848C166.036 10.2901 164.87 9.85115 163.898 9.78112C161.695 9.62237 160.539 10.6546 160.539 12.3229C160.539 13.8244 161.432 15.1092 163.888 14.9381C164.698 14.8816 166.046 14.4097 166.619 14.1368L166.626 15.6673C166.133 15.823 164.597 16.1574 163.151 16.1692C160.975 16.1869 159.439 15.7247 158.469 14.9748C158.468 19.4167 158.467 23.5845 158.467 23.5845C158.467 23.5845 162.722 23.5845 164.139 23.5845C165.687 23.5845 167.702 22.1381 167.702 19.9387C167.702 16.2478 167.702 1.10449 167.702 1.10449C167.702 1.10449 163.549 1.10449 162.102 1.10449Z" fill="url(#paint1_linear_17525_4112)"/>
<path d="M172.866 12.8068C172.244 12.8126 170.889 12.8005 170.644 12.8063L170.641 14.7926L172.862 14.7999C173.294 14.7999 173.837 14.43 173.837 13.7858C173.837 13.2157 173.368 12.802 172.866 12.8068Z" fill="url(#paint2_linear_17525_4112)"/>
<path d="M173.568 10.8061C173.568 10.2362 173.14 9.85167 172.685 9.86228C172.045 9.87716 170.891 9.84645 170.638 9.86884L170.631 11.6771L172.729 11.6919C173.078 11.6849 173.568 11.365 173.568 10.8061Z" fill="url(#paint3_linear_17525_4112)"/>
<path d="M172.461 1.10455C170.564 1.10455 168.83 2.81613 168.83 4.73575C168.83 5.31089 168.83 6.8129 168.829 8.73194H174.221C175.294 8.73194 176.558 9.19087 176.558 10.4954C176.558 11.1951 176.185 11.9875 174.843 12.2443V12.2741C175.626 12.2741 176.986 12.7329 176.986 14.117C176.986 15.5458 175.517 15.9426 174.731 15.9426L168.828 15.9485C168.827 20.0069 168.826 23.5845 168.826 23.5845C168.826 23.5845 173.081 23.5845 174.498 23.5845C176.046 23.5845 178.061 22.1381 178.061 19.9387C178.061 16.2478 178.061 1.10449 178.061 1.10449C178.061 1.10449 173.909 1.10455 172.461 1.10455Z" fill="url(#paint4_linear_17525_4112)"/>
</g>
<g clip-path="url(#clip4_17525_4112)">
<path d="M200.316 2.33301H208.288C209.401 2.33301 210.093 3.24009 209.833 4.35665L206.122 20.2924C205.86 21.405 204.746 22.3129 203.632 22.3129H195.66C194.549 22.3129 193.855 21.405 194.115 20.2924L197.828 4.35665C198.088 3.24009 199.201 2.33301 200.316 2.33301Z" fill="#E21836"/>
<path d="M207.624 2.33301H216.792C217.904 2.33301 217.403 3.24009 217.141 4.35665L213.43 20.2924C213.169 21.405 213.251 22.3129 212.136 22.3129H202.968C201.853 22.3129 201.163 21.405 201.425 20.2924L205.136 4.35665C205.399 3.24009 206.51 2.33301 207.624 2.33301Z" fill="#00447C"/>
<path d="M216.428 2.33301H224.4C225.515 2.33301 226.207 3.24009 225.945 4.35665L222.234 20.2924C221.972 21.405 220.857 22.3129 219.743 22.3129H211.774C210.659 22.3129 209.968 21.405 210.229 20.2924L213.941 4.35665C214.2 3.24009 215.313 2.33301 216.428 2.33301Z" fill="#007B84"/>
<path d="M202.397 7.44025C201.577 7.4486 201.335 7.44025 201.258 7.42198C201.228 7.56325 200.675 10.1152 200.673 10.1174C200.554 10.6337 200.467 11.0017 200.173 11.2394C200.006 11.3775 199.811 11.4442 199.585 11.4442C199.221 11.4442 199.009 11.2637 198.974 10.9213L198.967 10.8037C198.967 10.8037 199.078 10.1121 199.078 10.1082C199.078 10.1082 199.658 7.78264 199.762 7.47522C199.768 7.45774 199.769 7.4486 199.771 7.44025C198.64 7.45016 198.44 7.44025 198.426 7.42198C198.419 7.44705 198.391 7.59123 198.391 7.59123L197.798 10.2124L197.747 10.4347L197.648 11.1618C197.648 11.3775 197.691 11.5536 197.775 11.7024C198.045 12.1744 198.816 12.2452 199.252 12.2452C199.813 12.2452 200.34 12.1259 200.696 11.908C201.314 11.5429 201.476 10.9722 201.62 10.465L201.687 10.2048C201.687 10.2048 202.285 7.78944 202.386 7.47522C202.39 7.45774 202.392 7.4486 202.397 7.44025ZM204.432 9.38876C204.288 9.38876 204.024 9.42374 203.788 9.53975C203.702 9.58386 203.621 9.63477 203.535 9.68548L203.612 9.40625L203.57 9.35922C203.068 9.46085 202.956 9.47445 202.492 9.53975L202.453 9.56559C202.399 10.0119 202.351 10.3475 202.152 11.2249C202.076 11.5482 201.997 11.8747 201.918 12.1973L201.939 12.2383C202.414 12.2132 202.559 12.2132 202.972 12.22L203.005 12.1836C203.057 11.9149 203.064 11.8519 203.18 11.3077C203.235 11.0496 203.349 10.4826 203.405 10.2807C203.508 10.2329 203.61 10.1859 203.707 10.1859C203.939 10.1859 203.911 10.3878 203.902 10.4682C203.892 10.6033 203.807 11.0444 203.721 11.4231L203.663 11.6675C203.623 11.8481 203.579 12.0235 203.539 12.2025L203.556 12.2383C204.024 12.2132 204.167 12.2132 204.567 12.22L204.614 12.1836C204.686 11.7639 204.708 11.6516 204.836 11.0405L204.9 10.7597C205.026 10.2101 205.089 9.93149 204.994 9.70453C204.894 9.45016 204.653 9.38876 204.432 9.38876ZM206.705 9.96412C206.457 10.0119 206.298 10.0438 206.14 10.0644C205.984 10.0895 205.831 10.1122 205.59 10.1456L205.571 10.1629L205.554 10.1767C205.529 10.3559 205.511 10.5107 205.478 10.6928C205.45 10.8811 205.407 11.0951 205.336 11.4025C205.281 11.6378 205.253 11.7198 205.222 11.8026C205.192 11.8853 205.158 11.9658 205.097 12.1972L205.111 12.2186L205.123 12.2382C205.348 12.2275 205.495 12.22 205.647 12.2186C205.798 12.2132 205.954 12.2186 206.196 12.22L206.217 12.2027L206.24 12.1836C206.275 11.9749 206.28 11.9188 206.302 11.817C206.323 11.7077 206.359 11.5566 206.449 11.1528C206.491 10.9631 206.539 10.774 206.582 10.5805C206.628 10.3877 206.676 10.1979 206.721 10.0082L206.715 9.9853L206.705 9.96412ZM206.711 9.18836C206.485 9.05486 206.088 9.09722 205.82 9.28163C205.554 9.46235 205.524 9.71885 205.749 9.8541C205.971 9.9839 206.37 9.94523 206.635 9.75927C206.901 9.57466 206.934 9.3205 206.711 9.18836ZM208.079 12.2801C208.536 12.2801 209.005 12.154 209.358 11.7797C209.63 11.4762 209.755 11.0246 209.798 10.8386C209.938 10.2222 209.829 9.93445 209.691 9.75917C209.483 9.49198 209.114 9.40629 208.731 9.40629C208.501 9.40629 207.953 9.42902 207.525 9.82368C207.218 10.1084 207.076 10.4947 206.99 10.865C206.904 11.2424 206.804 11.9217 207.429 12.1746C207.622 12.2573 207.899 12.2801 208.079 12.2801ZM208.043 10.8932C208.148 10.4265 208.273 10.0347 208.591 10.0347C208.84 10.0347 208.858 10.3262 208.747 10.7945C208.727 10.8985 208.637 11.285 208.514 11.4496C208.428 11.571 208.326 11.6446 208.214 11.6446C208.18 11.6446 207.981 11.6446 207.978 11.3495C207.977 11.2037 208.007 11.0549 208.043 10.8932ZM210.942 12.22L210.977 12.1837C211.028 11.915 211.037 11.8518 211.149 11.3077C211.205 11.0497 211.321 10.4826 211.376 10.2807C211.479 10.2327 211.579 10.1857 211.68 10.1857C211.909 10.1857 211.881 10.3876 211.872 10.4681C211.864 10.6033 211.78 11.0442 211.692 11.4229L211.637 11.6674C211.595 11.8481 211.55 12.0234 211.51 12.2026L211.527 12.2383C211.997 12.2132 212.134 12.2132 212.537 12.22L212.585 12.1837C212.656 11.7638 212.675 11.6515 212.807 11.0405L212.87 10.7595C212.996 10.21 213.059 9.93155 212.966 9.70459C212.863 9.45022 212.621 9.38882 212.403 9.38882C212.259 9.38882 211.994 9.4236 211.758 9.5398C211.674 9.58391 211.59 9.63463 211.507 9.68554L211.579 9.40631L211.541 9.35909C211.039 9.46091 210.924 9.47451 210.461 9.5398L210.426 9.56565C210.369 10.012 210.324 10.3474 210.124 11.2249C210.048 11.5483 209.969 11.8747 209.89 12.1973L209.912 12.2383C210.388 12.2132 210.53 12.2132 210.942 12.22ZM214.394 12.2382C214.423 12.094 214.599 11.2394 214.6 11.2394C214.6 11.2394 214.75 10.6123 214.759 10.5896C214.759 10.5896 214.806 10.5243 214.853 10.4985H214.922C215.575 10.4985 216.312 10.4985 216.89 10.0735C217.283 9.78202 217.552 9.35161 217.671 8.8285C217.703 8.70025 217.726 8.54771 217.726 8.39517C217.726 8.19483 217.685 7.99662 217.569 7.84175C217.274 7.4296 216.688 7.42202 216.011 7.41891C216.009 7.41891 215.677 7.42202 215.677 7.42202C214.81 7.43271 214.462 7.4296 214.319 7.41211C214.307 7.47526 214.285 7.58758 214.285 7.58758C214.285 7.58758 213.974 9.02671 213.974 9.02904C213.974 9.02904 213.231 12.0888 213.196 12.233C213.953 12.2238 214.263 12.2238 214.394 12.2382ZM214.969 9.68175C214.969 9.68175 215.299 8.24554 215.298 8.25098L215.309 8.17734L215.313 8.12118L215.445 8.13478C215.445 8.13478 216.126 8.19327 216.142 8.19483C216.411 8.29879 216.522 8.56675 216.444 8.91653C216.374 9.23618 216.166 9.50492 215.9 9.63473C215.68 9.74471 215.412 9.75385 215.135 9.75385H214.956L214.969 9.68175ZM217.025 10.9198C216.938 11.2917 216.837 11.9711 217.459 12.2132C217.657 12.2975 217.835 12.3226 218.015 12.3135C218.206 12.3032 218.383 12.2076 218.546 12.07C218.531 12.1265 218.517 12.1831 218.502 12.2398L218.53 12.2762C218.977 12.2573 219.116 12.2573 219.6 12.261L219.644 12.2276C219.715 11.8117 219.782 11.4079 219.965 10.6124C220.055 10.2313 220.144 9.85398 220.236 9.47447L220.222 9.4327C219.722 9.52539 219.588 9.54521 219.107 9.61341L219.07 9.64314C219.066 9.68181 219.061 9.71893 219.056 9.75604C218.981 9.63518 218.873 9.53199 218.705 9.46767C218.491 9.38353 217.989 9.49196 217.557 9.88526C217.253 10.1661 217.108 10.5508 217.025 10.9198ZM218.075 10.9426C218.182 10.4842 218.305 10.0963 218.624 10.0963C218.826 10.0963 218.932 10.2823 218.91 10.5994C218.893 10.6785 218.875 10.7618 218.853 10.8561C218.821 10.9923 218.786 11.1274 218.753 11.2626C218.718 11.3551 218.679 11.4423 218.635 11.5004C218.553 11.6166 218.358 11.6887 218.245 11.6887C218.214 11.6887 218.017 11.6887 218.01 11.3988C218.009 11.2544 218.038 11.1058 218.075 10.9426ZM223.561 9.42898L223.522 9.38487C223.027 9.48514 222.938 9.50108 222.483 9.56248L222.45 9.5959C222.448 9.60134 222.447 9.6097 222.445 9.61728L222.443 9.6097C222.104 10.3907 222.114 10.2222 221.839 10.837C221.837 10.809 221.837 10.7915 221.836 10.7618L221.767 9.42898L221.723 9.38487C221.205 9.48514 221.193 9.50108 220.714 9.56248L220.677 9.5959C220.671 9.61184 220.671 9.62933 220.668 9.64837L220.671 9.65517C220.731 9.96103 220.717 9.89282 220.777 10.3755C220.805 10.6124 220.842 10.8506 220.87 11.0846C220.917 11.4761 220.944 11.6689 221.002 12.2664C220.678 12.8 220.602 13.0019 220.29 13.4702L220.292 13.4749L220.073 13.8216C220.048 13.8581 220.025 13.8832 219.994 13.8938C219.959 13.9111 219.913 13.9143 219.85 13.9143H219.729L219.548 14.5147L220.167 14.5254C220.531 14.5238 220.759 14.3538 220.882 14.1253L221.272 13.458H221.266L221.307 13.411C221.569 12.8471 223.561 9.42898 223.561 9.42898ZM217.025 17.3149H216.762L217.735 14.0988H218.057L218.159 13.7674L218.169 14.1359C218.157 14.3636 218.337 14.5655 218.807 14.5321H219.351L219.539 13.9128H219.334C219.216 13.9128 219.162 13.8831 219.168 13.8193L219.158 13.4445H218.151V13.4464C217.825 13.4532 216.852 13.4777 216.654 13.5302C216.416 13.5916 216.165 13.7723 216.165 13.7723L216.264 13.4406H215.321L215.124 14.0988L214.139 17.3641H213.948L213.76 17.9789H215.638L215.575 18.1839H216.5L216.562 17.9789H216.821L217.025 17.3149ZM216.254 14.7523C216.103 14.794 215.822 14.9207 215.822 14.9207L216.072 14.0988H216.821L216.641 14.6977C216.641 14.6977 216.409 14.7113 216.254 14.7523ZM216.269 15.9265C216.269 15.9265 216.033 15.9561 215.879 15.991C215.726 16.0373 215.44 16.183 215.44 16.183L215.698 15.3276H216.451L216.269 15.9265ZM215.849 17.3225H215.098L215.315 16.6006H216.065L215.849 17.3225ZM217.659 15.3276H218.742L218.586 15.8317H217.489L217.324 16.3828H218.284L217.557 17.4067C217.506 17.4819 217.46 17.5085 217.41 17.5297C217.359 17.5555 217.292 17.5858 217.215 17.5858H216.948L216.765 18.1894H217.462C217.824 18.1894 218.038 18.0246 218.196 17.8083L218.695 17.1259L218.802 17.8188C218.825 17.9486 218.918 18.0246 218.981 18.0541C219.051 18.0891 219.123 18.1491 219.225 18.1581C219.334 18.1627 219.413 18.1664 219.465 18.1664H219.808L220.013 17.491H219.878C219.801 17.491 219.667 17.478 219.644 17.4537C219.622 17.4241 219.622 17.3787 219.609 17.3095L219.501 16.615H219.056L219.251 16.3828H220.346L220.515 15.8317H219.501L219.659 15.3276H220.67L220.857 14.706H217.843L217.659 15.3276ZM208.51 17.4629L208.763 16.6219H209.802L209.992 15.9963H208.952L209.111 15.4787H210.127L210.315 14.873H207.773L207.588 15.4787H208.166L208.012 15.9963H207.433L207.241 16.6325H207.818L207.481 17.7452C207.436 17.8925 207.503 17.9487 207.545 18.0171C207.588 18.0837 207.632 18.1278 207.731 18.1529C207.833 18.1756 207.902 18.1892 207.997 18.1892H209.169L209.377 17.4963L208.858 17.5676C208.758 17.5676 208.48 17.5556 208.51 17.4629ZM208.63 13.4368L208.366 13.9127C208.31 14.0167 208.259 14.0812 208.214 14.1109C208.173 14.136 208.094 14.1465 207.978 14.1465H207.841L207.657 14.7553H208.114C208.333 14.7553 208.501 14.6748 208.582 14.6346C208.668 14.5883 208.691 14.6148 208.758 14.5503L208.912 14.4168H210.337L210.526 13.7829H209.483L209.665 13.4368H208.63ZM210.733 17.4751C210.709 17.4401 210.726 17.3785 210.763 17.2503L211.153 15.9613H212.538C212.74 15.9584 212.886 15.9561 212.981 15.9493C213.082 15.9386 213.193 15.9023 213.314 15.837C213.438 15.7686 213.502 15.6965 213.556 15.6137C213.616 15.5311 213.712 15.3504 213.795 15.0718L214.285 13.4406L212.847 13.449C212.847 13.449 212.404 13.5143 212.209 13.5864C212.013 13.6668 211.732 13.8915 211.732 13.8915L211.862 13.4443H210.974L209.73 17.5676C209.686 17.7277 209.657 17.8439 209.65 17.9137C209.648 17.9889 209.745 18.0633 209.808 18.1195C209.882 18.1756 209.992 18.1665 210.098 18.1756C210.209 18.184 210.366 18.1892 210.584 18.1892H211.267L211.476 17.4819L210.865 17.5396C210.8 17.5396 210.753 17.5046 210.733 17.4751ZM211.404 15.0908H212.859L212.767 15.3807C212.754 15.3875 212.722 15.3663 212.574 15.3838H211.314L211.404 15.0908ZM211.695 14.1184H213.163L213.057 14.4676C213.057 14.4676 212.366 14.4608 212.255 14.4812C211.768 14.5656 211.483 14.8259 211.483 14.8259L211.695 14.1184ZM212.799 16.3516C212.787 16.3949 212.768 16.4214 212.741 16.4412C212.712 16.4602 212.664 16.467 212.593 16.467H212.385L212.398 16.1139H211.535L211.5 17.8401C211.499 17.9646 211.511 18.0367 211.602 18.0944C211.693 18.1665 211.974 18.1757 212.352 18.1757H212.892L213.088 17.5296L212.617 17.5554L212.461 17.5645C212.439 17.5554 212.419 17.547 212.396 17.5243C212.376 17.5047 212.343 17.5167 212.348 17.3922L212.352 16.9497L212.845 16.9293C213.112 16.9293 213.226 16.8426 213.323 16.7601C213.416 16.681 213.446 16.59 213.481 16.467L213.564 16.0753H212.886L212.799 16.3516Z" fill="#FEFEFE"/>
</g>
<defs>
<linearGradient id="paint0_linear_17525_4112" x1="148.061" y1="12.3445" x2="157.295" y2="12.3445" gradientUnits="userSpaceOnUse">
<stop stop-color="#2B327B"/>
<stop offset="1" stop-color="#0078C0"/>
</linearGradient>
<linearGradient id="paint1_linear_17525_4112" x1="158.467" y1="12.3445" x2="167.702" y2="12.3445" gradientUnits="userSpaceOnUse">
<stop stop-color="#872D34"/>
<stop offset="1" stop-color="#FF1146"/>
</linearGradient>
<linearGradient id="paint2_linear_17525_4112" x1="170.641" y1="13.8023" x2="173.837" y2="13.8023" gradientUnits="userSpaceOnUse">
<stop stop-color="#008144"/>
<stop offset="1" stop-color="#00BB36"/>
</linearGradient>
<linearGradient id="paint3_linear_17525_4112" x1="170.631" y1="10.7761" x2="173.568" y2="10.7761" gradientUnits="userSpaceOnUse">
<stop stop-color="#008144"/>
<stop offset="1" stop-color="#00BB36"/>
</linearGradient>
<linearGradient id="paint4_linear_17525_4112" x1="168.826" y1="12.3445" x2="178.061" y2="12.3445" gradientUnits="userSpaceOnUse">
<stop stop-color="#008144"/>
<stop offset="1" stop-color="#00BB36"/>
</linearGradient>
<clipPath id="clip0_17525_4112">
<rect width="38" height="12.2982" fill="white" transform="translate(0 6.18359)"/>
</clipPath>
<clipPath id="clip1_17525_4112">
<rect width="38" height="23" fill="white" transform="translate(54 0.833008)"/>
</clipPath>
<clipPath id="clip2_17525_4112">
<rect width="24.0597" height="24" fill="white" transform="translate(108 0.333008)"/>
</clipPath>
<clipPath id="clip3_17525_4112">
<rect width="30.0001" height="24" fill="white" transform="translate(148.061 0.333008)"/>
</clipPath>
<clipPath id="clip4_17525_4112">
<rect width="32" height="20" fill="white" transform="translate(194.061 2.33301)"/>
</clipPath>
</defs>
</svg>
